{
  "accessors": [
    {
      "bufferView": 2,
      "componentType": 5126,
      "count": 1487,
      "max": [
        60.54259490966797,
        620.6649169921875,
        301.66876220703125
      ],
      "min": [
        -60.54259490966797,
        -699.936279296875,
        -69.60971069335938
      ],
      "type": "VEC3"
    },
    {
      "bufferView": 2,
      "byteOffset": 17844,
      "componentType": 5126,
      "count": 1487,
      "max": [
        0.9999985694885254,
        1.0,
        1.0
      ],
      "min": [
        -0.9999985098838806,
        -0.9928719401359558,
        -1.0
      ],
      "type": "VEC3"
    },
    {
      "bufferView": 1,
      "componentType": 5126,
      "count": 1487,
      "max": [
        0.9981802701950073,
        0.9641764760017395
      ],
      "min": [
        0.001777350902557373,
        0.0017761345952749252
      ],
      "type": "VEC2"
    },
    {
      "bufferView": 0,
      "componentType": 5125,
      "count": 5850,
      "type": "SCALAR"
    },
    {
      "bufferView": 2,
      "byteOffset": 35688,
      "componentType": 5126,
      "count": 64,
      "max": [
        275.3006286621094,
        188.30307006835938,
        11.974679946899414
      ],
      "min": [
        -1126.938720703125,
        -89.58485412597656,
        -25.89033317565918
      ],
      "type": "VEC3"
    },
    {
      "bufferView": 2,
      "byteOffset": 36456,
      "componentType": 5126,
      "count": 64,
      "max": [
        1.0,
        0.9724519848823547,
        0.9998780488967896
      ],
      "min": [
        -1.0,
        -0.999960720539093,
        -0.9993361830711365
      ],
      "type": "VEC3"
    },
    {
      "bufferView": 1,
      "byteOffset": 11896,
      "componentType": 5126,
      "count": 64,
      "max": [
        0.9982200860977173,
        0.9962448477745056
      ],
      "min": [
        0.0017773672007024288,
        0.002253890037536621
      ],
      "type": "VEC2"
    },
    {
      "bufferView": 0,
      "byteOffset": 23400,
      "componentType": 5125,
      "count": 120,
      "type": "SCALAR"
    },
    {
      "bufferView": 2,
      "byteOffset": 37224,
      "componentType": 5126,
      "count": 1340,
      "max": [
        49.088443756103516,
        539.6920166015625,
        47.23869323730469
      ],
      "min": [
        -471.8223571777344,
        -1.836344599723816,
        -63.739768981933594
      ],
      "type": "VEC3"
    },
    {
      "bufferView": 2,
      "byteOffset": 53304,
      "componentType": 5126,
      "count": 1340,
      "max": [
        0.9975045919418335,
        1.0,
        1.0
      ],
      "min": [
        -0.997504711151123,
        -1.0,
        -1.0
      ],
      "type": "VEC3"
    },
    {
      "bufferView": 1,
      "byteOffset": 12408,
      "componentType": 5126,
      "count": 1340,
      "max": [
        0.9959708452224731,
        0.7749056220054626
      ],
      "min": [
        0.0017821418587118387,
        0.0017754833679646254
      ],
      "type": "VEC2"
    },
    {
      "bufferView": 0,
      "byteOffset": 23880,
      "componentType": 5125,
      "count": 5016,
      "type": "SCALAR"
    },
    {
      "bufferView": 2,
      "byteOffset": 69384,
      "componentType": 5126,
      "count": 244,
      "max": [
        15.693670272827148,
        95.95877838134766,
        15.693672180175781
      ],
      "min": [
        -1438.53125,
        -95.95877838134766,
        -15.693672180175781
      ],
      "type": "VEC3"
    },
    {
      "bufferView": 2,
      "byteOffset": 72312,
      "componentType": 5126,
      "count": 244,
      "max": [
        1.0,
        1.0,
        1.0
      ],
      "min": [
        -1.0,
        -1.0,
        -1.0
      ],
      "type": "VEC3"
    },
    {
      "bufferView": 1,
      "byteOffset": 23128,
      "componentType": 5126,
      "count": 244,
      "max": [
        0.6116277575492859,
        0.9969491958618164
      ],
      "min": [
        0.0017799874767661095,
        0.0017769858241081238
      ],
      "type": "VEC2"
    },
    {
      "bufferView": 0,
      "byteOffset": 43944,
      "componentType": 5125,
      "count": 864,
      "type": "SCALAR"
    },
    {
      "bufferView": 2,
      "byteOffset": 75240,
      "componentType": 5126,
      "count": 64,
      "max": [
        229.68890380859375,
        130.25741577148438,
        29.89661979675293
      ],
      "min": [
        -229.68890380859375,
        -132.82986450195313,
        -10.720373153686523
      ],
      "type": "VEC3"
    },
    {
      "bufferView": 2,
      "byteOffset": 76008,
      "componentType": 5126,
      "count": 64,
      "max": [
        1.0,
        0.9143297076225281,
        0.996052086353302
      ],
      "min": [
        -1.0,
        -0.7365186214447021,
        -0.989437997341156
      ],
      "type": "VEC3"
    },
    {
      "bufferView": 1,
      "byteOffset": 25080,
      "componentType": 5126,
      "count": 64,
      "max": [
        0.9479151368141174,
        0.9628037810325623
      ],
      "min": [
        0.19045071303844452,
        0.0017762670759111643
      ],
      "type": "VEC2"
    },
    {
      "bufferView": 0,
      "byteOffset": 47400,
      "componentType": 5125,
      "count": 120,
      "type": "SCALAR"
    },
    {
      "bufferView": 2,
      "byteOffset": 76776,
      "componentType": 5126,
      "count": 98,
      "max": [
        24.55962562561035,
        23.64248275756836,
        54.285831451416016
      ],
      "min": [
        -24.55962562561035,
        -134.703125,
        -20.61113929748535
      ],
      "type": "VEC3"
    },
    {
      "bufferView": 2,
      "byteOffset": 77952,
      "componentType": 5126,
      "count": 98,
      "max": [
        1.0,
        0.9824405908584595,
        0.9953927993774414
      ],
      "min": [
        -1.0,
        -0.7789195775985718,
        -0.9994350671768188
      ],
      "type": "VEC3"
    },
    {
      "bufferView": 1,
      "byteOffset": 25592,
      "componentType": 5126,
      "count": 98,
      "max": [
        0.9110848307609558,
        0.8978665471076965
      ],
      "min": [
        0.0017854254692792892,
        0.0017771718557924032
      ],
      "type": "VEC2"
    },
    {
      "bufferView": 0,
      "byteOffset": 47880,
      "componentType": 5125,
      "count": 216,
      "type": "SCALAR"
    }
  ],
  "asset": {
    "extras": {
      "author": "radioape (https://sketchfab.com/radioape)",
      "license": "SKETCHFAB Standard (https://sketchfab.com/licenses)",
      "source": "https://sketchfab.com/3d-models/il-28-soviet-reconnaissance-aircraft-5652bcf6d16f4088898b24bcb0141570",
      "title": "IL-28 soviet reconnaissance aircraft"
    },
    "generator": "Sketchfab-16.61.0",
    "version": "2.0"
  },
  "bufferViews": [
    {
      "buffer": 0,
      "byteLength": 48744,
      "name": "floatBufferViews",
      "target": 34963
    },
    {
      "buffer": 0,
      "byteLength": 26376,
      "byteOffset": 48744,
      "byteStride": 8,
      "name": "floatBufferViews",
      "target": 34962
    },
    {
      "buffer": 0,
      "byteLength": 79128,
      "byteOffset": 75120,
      "byteStride": 12,
      "name": "floatBufferViews",
      "target": 34962
    }
  ],
  "buffers": [
    {
      "byteLength": 154248,
      "uri": "scene.bin"
    }
  ],
  "images": [
    {
      "uri": "textures/Scene_-_Root_baseColor.png"
    },
    {
      "uri": "textures/Scene_-_Root_metallicRoughness.png"
    }
  ],
  "materials": [
    {
      "doubleSided": true,
      "name": "Scene_-_Root",
      "occlusionTexture": {
        "index": 1
      },
      "pbrMetallicRoughness": {
        "baseColorTexture": {
          "index": 0
        },
        "metallicRoughnessTexture": {
          "index": 1
        }
      }
    }
  ],
  "meshes": [
    {
      "name": "Cylinder__0",
      "primitives": [
        {
          "attributes": {
            "NORMAL": 1,
            "POSITION": 0,
            "TEXCOORD_0": 2
          },
          "indices": 3,
          "material": 0,
          "mode": 4
        }
      ]
    },
    {
      "name": "Cube__0",
      "primitives": [
        {
          "attributes": {
            "NORMAL": 5,
            "POSITION": 4,
            "TEXCOORD_0": 6
          },
          "indices": 7,
          "material": 0,
          "mode": 4
        }
      ]
    },
    {
      "name": "Circle__0",
      "primitives": [
        {
          "attributes": {
            "NORMAL": 9,
            "POSITION": 8,
            "TEXCOORD_0": 10
          },
          "indices": 11,
          "material": 0,
          "mode": 4
        }
      ]
    },
    {
      "name": "Cylinder.001__0",
      "primitives": [
        {
          "attributes": {
            "NORMAL": 13,
            "POSITION": 12,
            "TEXCOORD_0": 14
          },
          "indices": 15,
          "material": 0,
          "mode": 4
        }
      ]
    },
    {
      "name": "Cube.001__0",
      "primitives": [
        {
          "attributes": {
            "NORMAL": 17,
            "POSITION": 16,
            "TEXCOORD_0": 18
          },
          "indices": 19,
          "material": 0,
          "mode": 4
        }
      ]
    },
    {
      "name": "Cube.002__0",
      "primitives": [
        {
          "attributes": {
            "NORMAL": 21,
            "POSITION": 20,
            "TEXCOORD_0": 22
          },
          "indices": 23,
          "material": 0,
          "mode": 4
        }
      ]
    }
  ],
  "nodes": [
    {
      "children": [
        1
      ],
      "matrix": [
        1.0,
        0.0,
        0.0,
        0.0,
        0.0,
        -5.053215392444312e-16,
        1.0,
        0.0,
        0.0,
        -1.0,
        -5.053215392444312e-16,
        0.0,
        0.0,
        0.0,
        0.0,
        1.0
      ],
      "name": "Sketchfab_model"
    },
    {
      "children": [
        2
      ],
      "matrix": [
        0.009999999776482582,
        0.0,
        0.0,
        0.0,
        0.0,
        -0.009999999776482582,
        0.0,
        0.0,
        0.0,
        0.0,
        -0.009999999776482582,
        0.0,
        0.0,
        0.0,
        0.0,
        1.0
      ],
      "name": "077c5daa27b74036a0d6cc6c043dcd5d.fbx"
    },
    {
      "children": [
        3,
        5,
        7,
        9,
        11,
        13
      ],
      "name": "RootNode"
    },
    {
      "children": [
        4
      ],
      "matrix": [
        1.0,
        0.0,
        0.0,
        0.0,
        0.0,
        1.0,
        0.0,
        0.0,
        0.0,
        0.0,
        1.0,
        0.0,
        -167.45672607421875,
        -69.14202117919922,
        -35.7826042175293,
        1.0
      ],
      "name": "Cylinder"
    },
    {
      "mesh": 0,
      "name": "Cylinder__0"
    },
    {
      "children": [
        6
      ],
      "matrix": [
        1.0,
        0.0,
        0.0,
        0.0,
        0.0,
        1.0,
        0.0,
        0.0,
        0.0,
        0.0,
        1.0,
        0.0,
        258.36236572265625,
        -96.69501495361328,
        16.632633209228516,
        1.0
      ],
      "name": "Cube"
    },
    {
      "mesh": 1,
      "name": "Cube__0"
    },
    {
      "children": [
        8
      ],
      "matrix": [
        1.0,
        0.0,
        0.0,
        0.0,
        0.0,
        1.0,
        0.0,
        0.0,
        0.0,
        0.0,
        1.0,
        0.0,
        43.910240173339844,
        -415.0893249511719,
        -28.218246459960938,
        1.0
      ],
      "name": "Circle"
    },
    {
      "mesh": 2,
      "name": "Circle__0"
    },
    {
      "children": [
        10
      ],
      "matrix": [
        1.0,
        0.0,
        0.0,
        0.0,
        0.0,
        1.0,
        0.0,
        0.0,
        0.0,
        0.0,
        1.0,
        0.0,
        543.9620971679688,
        -124.85798645019531,
        21.85099983215332,
        1.0
      ],
      "name": "Cylinder.001"
    },
    {
      "mesh": 3,
      "name": "Cylinder.001__0"
    },
    {
      "children": [
        12
      ],
      "matrix": [
        1.0,
        0.0,
        0.0,
        0.0,
        0.0,
        1.0,
        0.0,
        0.0,
        0.0,
        0.0,
        1.0,
        0.0,
        -167.45669555664063,
        377.80059814453125,
        63.08173370361328,
        1.0
      ],
      "name": "Cube.001"
    },
    {
      "mesh": 4,
      "name": "Cube.001__0"
    },
    {
      "children": [
        14
      ],
      "matrix": [
        1.0,
        0.0,
        0.0,
        0.0,
        0.0,
        1.0,
        0.0,
        0.0,
        0.0,
        0.0,
        1.0,
        0.0,
        -167.45669555664063,
        468.27703857421875,
        22.78543472290039,
        1.0
      ],
      "name": "Cube.002"
    },
    {
      "mesh": 5,
      "name": "Cube.002__0"
    }
  ],
  "samplers": [
    {
      "magFilter": 9729,
      "minFilter": 9987,
      "wrapS": 10497,
      "wrapT": 10497
    }
  ],
  "scene": 0,
  "scenes": [
    {
      "name": "Sketchfab_Scene",
      "nodes": [
        0
      ]
    }
  ],
  "textures": [
    {
      "sampler": 0,
      "source": 0
    },
    {
      "sampler": 0,
      "source": 1
    }
  ]
}
