{
  "accessors": [
    {
      "bufferView": 2,
      "componentType": 5126,
      "count": 174,
      "max": [
        0.9498220086097717,
        0.8977980017662048,
        0.2760629951953888
      ],
      "min": [
        -0.9561390280723572,
        -0.8973230123519897,
        -0.24172599613666534
      ],
      "type": "VEC3"
    },
    {
      "bufferView": 2,
      "byteOffset": 2088,
      "componentType": 5126,
      "count": 174,
      "max": [
        0.9706751704216003,
        0.9975058436393738,
        0.99991774559021
      ],
      "min": [
        -0.988462507724762,
        -0.9945166707038879,
        -0.9964857697486877
      ],
      "type": "VEC3"
    },
    {
      "bufferView": 1,
      "componentType": 5126,
      "count": 174,
      "max": [
        0.9869400262832642,
        0.90448397397995
      ],
      "min": [
        0.04416700080037117,
        0.09818699955940247
      ],
      "type": "VEC2"
    },
    {
      "bufferView": 0,
      "componentType": 5125,
      "count": 906,
      "type": "SCALAR"
    }
  ],
  "asset": {
    "extras": {
      "author": "AsherPasher (https://sketchfab.com/EvolutionaryEnthusiast)",
      "license": "SKETCHFAB Standard (https://sketchfab.com/licenses)",
      "source": "https://sketchfab.com/3d-models/british-spitfire-low-poly-40599d6d75804fa692eb05352376a650",
      "title": "British Spitfire (Low Poly)"
    },
    "generator": "Sketchfab-16.99.0",
    "version": "2.0"
  },
  "bufferViews": [
    {
      "buffer": 0,
      "byteLength": 3624,
      "name": "floatBufferViews",
      "target": 34963
    },
    {
      "buffer": 0,
      "byteLength": 1392,
      "byteOffset": 3624,
      "byteStride": 8,
      "name": "floatBufferViews",
      "target": 34962
    },
    {
      "buffer": 0,
      "byteLength": 4176,
      "byteOffset": 5016,
      "byteStride": 12,
      "name": "floatBufferViews",
      "target": 34962
    }
  ],
  "buffers": [
    {
      "byteLength": 9192,
      "uri": "scene.bin"
    }
  ],
  "images": [
    {
      "uri": "textures/material_0_baseColor.jpeg"
    }
  ],
  "materials": [
    {
      "doubleSided": true,
      "name": "material_0",
      "pbrMetallicRoughness": {
        "baseColorTexture": {
          "index": 0
        },
        "metallicFactor": 0.0,
        "roughnessFactor": 0.29727380740204046
      }
    }
  ],
  "meshes": [
    {
      "name": "Object_0",
      "primitives": [
        {
          "attributes": {
            "NORMAL": 1,
            "POSITION": 0,
            "TEXCOORD_0": 2
          },
          "indices": 3,
          "material": 0,
          "mode": 4
        }
      ]
    }
  ],
  "nodes": [
    {
      "children": [
        1
      ],
      "matrix": [
        1.0,
        0.0,
        0.0,
        0.0,
        0.0,
        2.220446049250313e-16,
        -1.0,
        0.0,
        0.0,
        1.0,
        2.220446049250313e-16,
        0.0,
        0.0,
        0.0,
        0.0,
        1.0
      ],
      "name": "Sketchfab_model"
    },
    {
      "children": [
        2
      ],
      "name": "797a7fcb853e4cdabfac0c578aaebb06.obj.cleaner.materialmerger.gles"
    },
    {
      "mesh": 0,
      "name": "Object_2"
    }
  ],
  "samplers": [
    {
      "magFilter": 9729,
      "minFilter": 9987,
      "wrapS": 10497,
      "wrapT": 10497
    }
  ],
  "scene": 0,
  "scenes": [
    {
      "name": "Sketchfab_Scene",
      "nodes": [
        0
      ]
    }
  ],
  "textures": [
    {
      "sampler": 0,
      "source": 0
    }
  ]
}
